<svg width="8" height="10" viewBox="0 0 8 10" fill="none" xmlns="http://www.w3.org/2000/svg">
<path d="M7.92 5.38C7.87241 5.50275 7.80104 5.6149 7.71 5.71L4.71 8.71C4.61704 8.80373 4.50644 8.87813 4.38458 8.92889C4.26272 8.97966 4.13201 9.0058 4 9.0058C3.86799 9.0058 3.73728 8.97966 3.61542 8.92889C3.49356 8.87813 3.38296 8.80373 3.29 8.71C3.19627 8.61704 3.12188 8.50644 3.07111 8.38458C3.02034 8.26272 2.9942 8.13201 2.9942 8C2.9942 7.86799 3.02034 7.73729 3.07111 7.61543C3.12188 7.49357 3.19627 7.38297 3.29 7.29L4.59 6H1C0.734784 6 0.48043 5.89465 0.292893 5.70711C0.105357 5.51957 0 5.26522 0 5C0 4.73479 0.105357 4.48043 0.292893 4.2929C0.48043 4.10536 0.734784 4 1 4H4.59L3.29 2.71C3.1017 2.5217 2.99591 2.2663 2.99591 2C2.99591 1.7337 3.1017 1.47831 3.29 1.29C3.4783 1.1017 3.7337 0.995911 4 0.995911C4.2663 0.995911 4.5217 1.1017 4.71 1.29L7.71 4.29C7.80104 4.38511 7.87241 4.49725 7.92 4.62C8.02002 4.86346 8.02002 5.13654 7.92 5.38Z" fill="white"/>
</svg>
